<svg width="151" height="102" viewBox="0 0 151 102" fill="none" xmlns="http://www.w3.org/2000/svg">
<path d="M14.6864 101.383L121.614 88.2971C122.979 88.1296 124.215 87.3363 124.905 86.1243L149.886 42.7019C150.861 41.0069 150.6 38.8735 149.245 37.4644L114.529 1.34885C113.568 0.333873 112.174 -0.134201 110.814 0.0333206L3.88127 13.1197C1.44729 13.4153 -0.262407 15.593 0.0332179 18.0172L9.76914 97.5551C10.0648 99.9792 12.2524 101.684 14.6864 101.383ZM129.113 36.5282C132.424 36.1242 135.429 38.4646 135.834 41.7608C136.238 45.0619 133.887 48.0576 130.576 48.4616C127.265 48.8656 124.26 46.5253 123.856 43.2291C123.452 39.9328 125.807 36.9372 129.113 36.5282Z" fill="#32C2B9"/>
<path d="M42.8468 64.4459L43.3099 69.3729L28.8933 71.1122C27.0505 71.3339 25.597 71.0679 24.5771 70.3879C23.508 69.6291 22.8921 68.5452 22.6654 67.0621L17.5955 37.2188L39.8117 34.5385L40.2748 39.4606L24.587 41.3526L28.4153 63.8792C28.5681 64.7513 28.8538 65.2933 29.2874 65.5495C29.6816 65.8599 30.3123 65.9634 31.1893 65.855L42.8468 64.4459ZM52.1639 47.7184L57.9483 47.0188L58.5395 51.9261L52.5827 52.6455L54.0904 70.2943L47.8675 71.0432L44.5663 32.6711L50.7892 31.9222L52.1639 47.7184Z" fill="white"/>
<path d="M65.4458 31.4428L67.3329 44.1054L73.201 43.3959L71.9742 30.6545L77.936 29.9302L80.9908 64.8189L70.299 66.1147C68.4563 66.3364 67.052 66.1048 66.1307 65.4594C65.16 64.7745 64.5442 63.7398 64.3224 62.2568L59.2229 32.1917L65.4458 31.4428ZM98.3489 64.947L92.5645 65.6466L91.0519 47.9978L88.0759 48.3575L89.5294 65.5678L83.745 66.2674L80.5522 28.7723L86.3366 28.0727L87.6571 43.4304L90.638 43.0707L89.2633 27.2745L95.0477 26.5748L98.3489 64.947ZM73.6642 48.323L68.0966 48.9931L69.6338 59.1231C69.7274 59.9115 70.0132 60.414 70.4369 60.6259C70.8311 60.9363 71.3731 61.0053 72.1614 60.9067L74.8762 60.5816L73.6642 48.323Z" fill="white"/>
</svg>
