<svg width="18" height="18" viewBox="0 0 18 18" fill="none" xmlns="http://www.w3.org/2000/svg">
<g clip-path="url(#clip0_596_7983)">
<path d="M4.66111 3.73186C4.57272 3.73186 4.5004 3.80419 4.5004 3.89258V4.85686C4.5004 4.94526 4.57272 5.01758 4.66111 5.01758H12.3754C12.4638 5.01758 12.5361 4.94526 12.5361 4.85686V3.89258C12.5361 3.80419 12.4638 3.73186 12.3754 3.73186H4.66111ZM8.35754 6.62472H4.66111C4.57272 6.62472 4.5004 6.69704 4.5004 6.78544V7.74972C4.5004 7.83811 4.57272 7.91044 4.66111 7.91044H8.35754C8.44593 7.91044 8.51826 7.83811 8.51826 7.74972V6.78544C8.51826 6.69704 8.44593 6.62472 8.35754 6.62472ZM7.39326 15.8256H2.89326V1.68276H14.1433V8.11133C14.1433 8.19972 14.2156 8.27204 14.304 8.27204H15.429C15.5174 8.27204 15.5897 8.19972 15.5897 8.11133V0.879185C15.5897 0.523605 15.3024 0.236328 14.9468 0.236328H2.08968C1.7341 0.236328 1.44683 0.523605 1.44683 0.879185V16.6292C1.44683 16.9848 1.7341 17.272 2.08968 17.272H7.39326C7.48165 17.272 7.55397 17.1997 7.55397 17.1113V15.9863C7.55397 15.8979 7.48165 15.8256 7.39326 15.8256ZM16.2325 14.0578H13.3397V13.3225C14.2698 13.0453 14.9468 12.1854 14.9468 11.1649C14.9468 9.92137 13.9404 8.9149 12.6968 8.9149C11.4533 8.9149 10.4468 9.92137 10.4468 11.1649C10.4468 12.1834 11.1238 13.0453 12.054 13.3225V14.0578H9.16111C8.98433 14.0578 8.83968 14.2024 8.83968 14.3792V17.4328C8.83968 17.6095 8.98433 17.7542 9.16111 17.7542H16.2325C16.4093 17.7542 16.554 17.6095 16.554 17.4328V14.3792C16.554 14.2024 16.4093 14.0578 16.2325 14.0578ZM11.6924 11.1649C11.6924 10.6104 12.1424 10.1604 12.6968 10.1604C13.2513 10.1604 13.7013 10.6104 13.7013 11.1649C13.7013 11.7194 13.2513 12.1694 12.6968 12.1694C12.1424 12.1694 11.6924 11.7194 11.6924 11.1649ZM15.3084 16.5087H10.0852V15.3033H15.3084V16.5087Z" fill="black"/>
</g>
<defs>
<clipPath id="clip0_596_7983">
<rect width="18" height="18" fill="white" transform="translate(-6.10352e-05 -0.000976562)"/>
</clipPath>
</defs>
</svg>
