<svg width="18" height="19" viewBox="0 0 18 19" fill="none" xmlns="http://www.w3.org/2000/svg">
<path d="M17.28 2.20691H13.5V0.766914C13.5 0.667914 13.419 0.586914 13.32 0.586914H12.06C11.961 0.586914 11.88 0.667914 11.88 0.766914V2.20691H6.12V0.766914C6.12 0.667914 6.039 0.586914 5.94 0.586914H4.68C4.581 0.586914 4.5 0.667914 4.5 0.766914V2.20691H0.72C0.3217 2.20691 0 2.52871 0 2.92691V17.8669C0 18.2652 0.3217 18.5869 0.72 18.5869H17.28C17.6783 18.5869 18 18.2652 18 17.8669V2.92691C18 2.52871 17.6783 2.20691 17.28 2.20691ZM16.38 16.9669H1.62V8.41691H16.38V16.9669ZM1.62 6.88691V3.82691H4.5V4.90691C4.5 5.00591 4.581 5.08691 4.68 5.08691H5.94C6.039 5.08691 6.12 5.00591 6.12 4.90691V3.82691H11.88V4.90691C11.88 5.00591 11.961 5.08691 12.06 5.08691H13.32C13.419 5.08691 13.5 5.00591 13.5 4.90691V3.82691H16.38V6.88691H1.62Z" fill="black"/>
</svg>
