<svg width="18" height="19" viewBox="0 0 18 19" fill="none" xmlns="http://www.w3.org/2000/svg">
<g clip-path="url(#clip0_596_7969)">
<path d="M8.99994 0.998047C4.02985 0.998047 -6.10352e-05 5.02796 -6.10352e-05 9.99805C-6.10352e-05 14.9681 4.02985 18.998 8.99994 18.998C13.97 18.998 17.9999 14.9681 17.9999 9.99805C17.9999 5.02796 13.97 0.998047 8.99994 0.998047ZM8.99994 17.4713C4.8736 17.4713 1.52672 14.1244 1.52672 9.99805C1.52672 5.87171 4.8736 2.52483 8.99994 2.52483C13.1263 2.52483 16.4732 5.87171 16.4732 9.99805C16.4732 14.1244 13.1263 17.4713 8.99994 17.4713ZM9.9582 9.53197L9.44793 9.41345V6.71546C10.2113 6.81992 10.6834 7.29805 10.7638 7.88465C10.7738 7.96501 10.8421 8.02327 10.9225 8.02327H11.8245C11.9189 8.02327 11.9932 7.9409 11.9852 7.84648C11.8627 6.59492 10.8321 5.79135 9.45597 5.65273V4.99581C9.45597 4.90742 9.38364 4.8351 9.29525 4.8351H8.73074C8.64235 4.8351 8.57003 4.90742 8.57003 4.99581V5.65876C7.14771 5.79738 6.03476 6.58287 6.03476 8.04939C6.03476 9.40742 7.03521 10.0623 8.08588 10.3134L8.58208 10.44V13.3068C7.69414 13.1882 7.19592 12.7141 7.09347 12.0753C7.08141 11.9989 7.01311 11.9427 6.93476 11.9427H6.00664C5.91222 11.9427 5.83789 12.023 5.84592 12.1175C5.93632 13.2224 6.77405 14.2389 8.56199 14.3695V15.0003C8.56199 15.0887 8.63431 15.161 8.72271 15.161H9.29324C9.38163 15.161 9.45396 15.0887 9.45396 14.9983L9.44994 14.3614C11.0229 14.2228 12.1479 13.3811 12.1479 11.8704C12.1459 10.4762 11.26 9.8534 9.9582 9.53197ZM8.58007 9.20653C8.46757 9.17439 8.37315 9.14425 8.27873 9.10608C7.59972 8.86099 7.28431 8.46523 7.28431 7.95497C7.28431 7.22573 7.83677 6.80988 8.58007 6.71546V9.20653ZM9.44793 13.3128V10.6268C9.51021 10.6449 9.56646 10.659 9.62471 10.671C10.5749 10.9603 10.8944 11.3621 10.8944 11.9788C10.8944 12.7643 10.3037 13.2364 9.44793 13.3128Z" fill="black"/>
</g>
<defs>
<clipPath id="clip0_596_7969">
<rect width="18" height="18" fill="white" transform="translate(-6.10352e-05 0.998047)"/>
</clipPath>
</defs>
</svg>
