<svg width="18" height="19" viewBox="0 0 18 19" fill="none" xmlns="http://www.w3.org/2000/svg">
<g clip-path="url(#clip0_596_8002)">
<path d="M17.2926 12.2842L15.9768 11.1592C16.039 10.7775 16.0712 10.3878 16.0712 9.99807C16.0712 9.60834 16.039 9.21861 15.9768 8.83691L17.2926 7.71191C17.3919 7.62695 17.4629 7.51378 17.4963 7.38747C17.5296 7.26115 17.5238 7.12767 17.4794 7.00477L17.4614 6.95254C17.0991 5.94009 16.5567 5.00154 15.8603 4.18223L15.8241 4.14004C15.7396 4.0407 15.627 3.96929 15.5011 3.93522C15.3753 3.90115 15.242 3.90602 15.119 3.94919L13.4857 4.52977C12.883 4.03557 12.21 3.64584 11.4828 3.37263L11.1674 1.66504C11.1436 1.53655 11.0813 1.41835 10.9887 1.32613C10.8961 1.23391 10.7777 1.17204 10.6491 1.14874L10.5948 1.1387C9.5482 0.94986 8.4473 0.94986 7.40065 1.1387L7.34641 1.14874C7.21783 1.17204 7.09939 1.23391 7.00681 1.32613C6.91423 1.41835 6.8519 1.53655 6.82811 1.66504L6.5107 3.38066C5.78927 3.65394 5.11744 4.04346 4.52186 4.53379L2.87655 3.94919C2.75353 3.90568 2.62019 3.90064 2.49424 3.93473C2.36829 3.96882 2.25569 4.04042 2.17141 4.14004L2.13525 4.18223C1.43965 5.00212 0.897301 5.94052 0.534135 6.95254L0.516054 7.00477C0.425652 7.25589 0.499983 7.53714 0.702885 7.71191L2.0348 8.84897C1.97253 9.22665 1.94239 9.61236 1.94239 9.99607C1.94239 10.3818 1.97253 10.7675 2.0348 11.1432L0.702885 12.2802C0.603635 12.3652 0.532601 12.4783 0.499227 12.6047C0.465854 12.731 0.471723 12.8645 0.516054 12.9874L0.534135 13.0396C0.897751 14.0521 1.43614 14.9862 2.13525 15.8099L2.17141 15.8521C2.2559 15.9514 2.3685 16.0228 2.49437 16.0569C2.62025 16.091 2.75349 16.0861 2.87655 16.0429L4.52186 15.4583C5.12052 15.9505 5.78949 16.3403 6.5107 16.6115L6.82811 18.3271C6.8519 18.4556 6.91423 18.5738 7.00681 18.666C7.09939 18.7582 7.21783 18.8201 7.34641 18.8434L7.40065 18.8534C8.45692 19.0433 9.53858 19.0433 10.5948 18.8534L10.6491 18.8434C10.7777 18.8201 10.8961 18.7582 10.9887 18.666C11.0813 18.5738 11.1436 18.4556 11.1674 18.3271L11.4828 16.6195C12.2097 16.347 12.8865 15.956 13.4857 15.4624L15.119 16.0429C15.242 16.0864 15.3753 16.0915 15.5013 16.0574C15.6272 16.0233 15.7398 15.9517 15.8241 15.8521L15.8603 15.8099C16.5594 14.9842 17.0977 14.0521 17.4614 13.0396L17.4794 12.9874C17.5698 12.7403 17.4955 12.459 17.2926 12.2842ZM14.5504 9.07397C14.6007 9.37732 14.6268 9.6887 14.6268 10.0001C14.6268 10.3115 14.6007 10.6229 14.5504 10.9262L14.4178 11.7318L15.9185 13.0155C15.691 13.5396 15.4038 14.0357 15.0627 14.4941L13.1984 13.8331L12.5676 14.3514C12.0875 14.7452 11.5531 15.0545 10.9745 15.2715L10.2091 15.5588L9.84954 17.5075C9.28215 17.5717 8.70933 17.5717 8.14195 17.5075L7.78235 15.5548L7.02297 15.2635C6.45043 15.0465 5.91806 14.7371 5.44195 14.3454L4.81114 13.8251L2.9348 14.492C2.59329 14.032 2.30802 13.5358 2.079 13.0135L3.59574 11.7177L3.46516 10.9141C3.41695 10.6148 3.39083 10.3054 3.39083 10.0001C3.39083 9.69272 3.41494 9.38535 3.46516 9.08602L3.59574 8.28245L2.079 6.98669C2.30601 6.46236 2.59329 5.96816 2.9348 5.50812L4.81114 6.17508L5.44195 5.65477C5.91806 5.26303 6.45043 4.95366 7.02297 4.73669L7.78436 4.44941L8.14396 2.49674C8.70846 2.43245 9.28503 2.43245 9.85155 2.49674L10.2111 4.4454L10.9765 4.73267C11.5531 4.94964 12.0895 5.25901 12.5696 5.65276L13.2004 6.17107L15.0647 5.51013C15.4062 5.97017 15.6915 6.46638 15.9205 6.9887L14.4198 8.27241L14.5504 9.07397ZM8.99976 6.26348C7.04708 6.26348 5.46405 7.84651 5.46405 9.79919C5.46405 11.7519 7.04708 13.3349 8.99976 13.3349C10.9524 13.3349 12.5355 11.7519 12.5355 9.79919C12.5355 7.84651 10.9524 6.26348 8.99976 6.26348ZM10.5908 11.3903C10.3821 11.5995 10.1341 11.7655 9.86109 11.8786C9.58803 11.9917 9.29531 12.0497 8.99976 12.0492C8.39909 12.0492 7.83458 11.8141 7.40869 11.3903C7.1994 11.1816 7.03345 10.9336 6.92036 10.6605C6.80728 10.3875 6.7493 10.0947 6.74976 9.79919C6.74976 9.19852 6.9848 8.63401 7.40869 8.20812C7.83458 7.78223 8.39909 7.54919 8.99976 7.54919C9.60043 7.54919 10.1649 7.78223 10.5908 8.20812C10.8001 8.4168 10.9661 8.66481 11.0792 8.93786C11.1922 9.21092 11.2502 9.50364 11.2498 9.79919C11.2498 10.3999 11.0147 10.9644 10.5908 11.3903Z" fill="black"/>
</g>
<defs>
<clipPath id="clip0_596_8002">
<rect width="18" height="18" fill="white" transform="translate(-3.05176e-05 0.99707)"/>
</clipPath>
</defs>
</svg>
