<svg width="18" height="18" viewBox="0 0 18 18" fill="none" xmlns="http://www.w3.org/2000/svg">
<path d="M15.9603 14.051C15.5814 13.1533 15.0314 12.338 14.3411 11.6503C13.6529 10.9607 12.8377 10.4108 11.9404 10.0311C11.9324 10.0271 11.9244 10.0251 11.9163 10.0211C13.1679 9.11705 13.9815 7.6445 13.9815 5.98312C13.9815 3.23089 11.7516 1.00098 8.99938 1.00098C6.24714 1.00098 4.01723 3.23089 4.01723 5.98312C4.01723 7.6445 4.83085 9.11705 6.08241 10.0231C6.07438 10.0271 6.06634 10.0291 6.05831 10.0331C5.15831 10.4128 4.35072 10.9572 3.65764 11.6523C2.96799 12.3405 2.41814 13.1557 2.03844 14.053C1.66543 14.9314 1.46425 15.8732 1.44581 16.8273C1.44527 16.8488 1.44903 16.8701 1.45687 16.8901C1.4647 16.91 1.47646 16.9282 1.49143 16.9436C1.50641 16.9589 1.52431 16.9711 1.54407 16.9794C1.56384 16.9878 1.58507 16.9921 1.60652 16.9921H2.81188C2.90027 16.9921 2.97058 16.9217 2.97259 16.8354C3.01277 15.2845 3.63554 13.832 4.73643 12.7311C5.87549 11.5921 7.38822 10.9653 8.99938 10.9653C10.6105 10.9653 12.1233 11.5921 13.2623 12.7311C14.3632 13.832 14.986 15.2845 15.0262 16.8354C15.0282 16.9237 15.0985 16.9921 15.1869 16.9921H16.3922C16.4137 16.9921 16.4349 16.9878 16.4547 16.9794C16.4744 16.9711 16.4923 16.9589 16.5073 16.9436C16.5223 16.9282 16.5341 16.91 16.5419 16.8901C16.5497 16.8701 16.5535 16.8488 16.5529 16.8273C16.5329 15.8671 16.334 14.9329 15.9603 14.051ZM8.99938 9.43848C8.07728 9.43848 7.20942 9.07888 6.55652 8.42598C5.90362 7.77308 5.54402 6.90522 5.54402 5.98312C5.54402 5.06102 5.90362 4.19316 6.55652 3.54026C7.20942 2.88736 8.07728 2.52776 8.99938 2.52776C9.92147 2.52776 10.7893 2.88736 11.4422 3.54026C12.0951 4.19316 12.4547 5.06102 12.4547 5.98312C12.4547 6.90522 12.0951 7.77308 11.4422 8.42598C10.7893 9.07888 9.92147 9.43848 8.99938 9.43848Z" fill="black"/>
</svg>
