<svg width="60" height="60" viewBox="0 0 60 60" fill="none" xmlns="http://www.w3.org/2000/svg">
<path d="M0 20C0 8.9543 8.95431 0 20 0H40C51.0457 0 60 8.95431 60 20V40C60 51.0457 51.0457 60 40 60H20C8.9543 60 0 51.0457 0 40V20Z" fill="#FEE500"/>
<path d="M30.3607 17C21.0271 17 13.5 23.0216 13.5 30.332C13.5 35.0771 16.6313 39.232 21.3282 41.6046L19.7385 47.542C19.7085 47.631 19.7039 47.7265 19.7252 47.818C19.7464 47.9094 19.7927 47.9932 19.8589 48.0598C19.9554 48.1449 20.0795 48.192 20.2082 48.1923C20.3148 48.1837 20.416 48.1416 20.4972 48.0719L27.3379 43.4593C28.3476 43.5987 29.3655 43.671 30.3848 43.676C39.7064 43.676 47.2456 37.6544 47.2456 30.332C47.2456 23.0096 39.6823 17 30.3607 17Z" fill="#392020"/>
<path d="M19.401 28.2241H17.5584C17.33 28.2307 17.1044 28.1722 16.908 28.0555C16.8208 28.0008 16.7458 27.9287 16.6878 27.8438C16.6298 27.7588 16.5899 27.6627 16.5708 27.5616C16.5649 27.4975 16.5649 27.4332 16.5708 27.3691C16.5651 27.2491 16.5884 27.1295 16.6387 27.0205C16.689 26.9115 16.7649 26.8162 16.8598 26.7428C17.0698 26.5907 17.3232 26.5104 17.5824 26.5139H23.1344C23.3646 26.5058 23.5917 26.5689 23.7848 26.6946C23.874 26.7468 23.9506 26.8182 24.0089 26.9036C24.0672 26.989 24.1058 27.0862 24.122 27.1884C24.1279 27.2484 24.1279 27.309 24.122 27.3691C24.1277 27.4907 24.1044 27.612 24.0542 27.7229C24.004 27.8339 23.9281 27.9313 23.833 28.0072C23.6281 28.1591 23.3771 28.2358 23.1224 28.2241H21.34V34.5589C21.3472 34.6939 21.3263 34.8288 21.2786 34.9553C21.231 35.0817 21.1575 35.197 21.063 35.2936C20.9723 35.3859 20.8633 35.4583 20.743 35.506C20.6227 35.5537 20.4938 35.5757 20.3645 35.5705C20.1383 35.577 19.9169 35.5047 19.7382 35.3659C19.5681 35.2303 19.4526 35.0378 19.413 34.8238C19.4011 34.7359 19.4011 34.6468 19.413 34.5589L19.401 28.2241Z" fill="#FEE500"/>
<path d="M24.6533 26.9843C24.7063 26.7861 24.8307 26.6145 25.0026 26.5026C25.1857 26.3988 25.3945 26.3487 25.6048 26.358H26.0624C26.2856 26.35 26.5066 26.4043 26.7007 26.5146C26.9064 26.653 27.0526 26.8636 27.1102 27.1047L29.5189 33.9093C29.5813 34.0868 29.6336 34.2678 29.6754 34.4513C29.6795 34.5275 29.6795 34.6039 29.6754 34.6801C29.6795 34.7974 29.6579 34.9143 29.6121 35.0225C29.5664 35.1306 29.4976 35.2275 29.4105 35.3063C29.3261 35.3928 29.2248 35.461 29.1129 35.5066C29.001 35.5522 28.8809 35.5742 28.7601 35.5713C28.5744 35.5897 28.3878 35.5452 28.2305 35.4447C28.0732 35.3442 27.9543 35.1936 27.893 35.0173L27.3872 33.536H24.2198L23.714 35.0173C23.6541 35.1971 23.5338 35.3506 23.3735 35.4516C23.2132 35.5526 23.0228 35.5949 22.8348 35.5713C22.6311 35.5766 22.4317 35.5129 22.2687 35.3906C22.11 35.2644 22.0029 35.0846 21.9677 34.8849C21.9613 34.8168 21.9613 34.7482 21.9677 34.6801C21.947 34.5605 21.947 34.4384 21.9677 34.3189C21.9677 34.1864 22.052 34.0418 22.1001 33.9093L24.6533 26.9843ZM25.8577 28.5621L24.7135 32.1751H26.9897L25.8577 28.5621Z" fill="#FEE500"/>
<path d="M30.0147 27.6085C30.0025 27.3382 30.0977 27.0741 30.2797 26.8738C30.3722 26.7805 30.4832 26.7076 30.6056 26.6599C30.728 26.6122 30.859 26.5906 30.9902 26.5967C31.2158 26.5941 31.436 26.6661 31.6165 26.8015C31.7838 26.9428 31.8949 27.1393 31.9296 27.3554C31.9415 27.4393 31.9415 27.5246 31.9296 27.6085V33.9433H35.2415C35.4711 33.9403 35.6968 34.0029 35.8919 34.1238C35.9796 34.1779 36.0549 34.2499 36.113 34.3349C36.1711 34.42 36.2107 34.5163 36.2291 34.6176C36.2291 34.6176 36.2291 34.7381 36.2291 34.7983C36.2348 34.9183 36.2115 35.0377 36.1612 35.1468C36.1109 35.2558 36.035 35.3512 35.9401 35.4246C35.7301 35.5767 35.4767 35.6568 35.2175 35.6534H31.1468C30.8875 35.67 30.6298 35.6026 30.4121 35.4608C30.2174 35.3152 30.0877 35.0989 30.0508 34.8586C30.042 34.7263 30.042 34.5934 30.0508 34.4611L30.0147 27.6085Z" fill="#FEE500"/>
<path d="M36.3825 27.3693C36.3752 27.0998 36.4698 26.8375 36.6474 26.6347C36.8279 26.4707 37.0594 26.3738 37.303 26.3607C37.5465 26.3475 37.7871 26.4188 37.9842 26.5624C38.1552 26.7024 38.2705 26.8988 38.3094 27.1163C38.3153 27.2005 38.3153 27.2851 38.3094 27.3693V30.3199L41.3564 26.8032C41.4738 26.6832 41.5985 26.5707 41.7297 26.4661C41.8534 26.3924 41.9953 26.3548 42.1392 26.3576C42.3497 26.3564 42.5555 26.4195 42.7293 26.5382C42.8112 26.5934 42.8811 26.6645 42.9349 26.7473C42.9887 26.8301 43.0253 26.9228 43.0424 27.02C43.0473 27.0439 43.0473 27.0685 43.0424 27.0923C43.0366 27.1201 43.0366 27.1488 43.0424 27.1766C43.042 27.3033 43.0088 27.4278 42.9461 27.5379C42.8822 27.6545 42.8054 27.7635 42.7173 27.863L40.7181 30.055L43.1268 33.7884V33.9088C43.2518 34.0814 43.3493 34.2724 43.4158 34.4749V34.5351C43.4297 34.6746 43.4096 34.8155 43.3572 34.9455C43.3047 35.0756 43.2215 35.1909 43.1147 35.2818C42.9138 35.4336 42.668 35.5142 42.4162 35.5107C42.2489 35.5176 42.0827 35.4801 41.9345 35.4022C41.7741 35.2946 41.6419 35.1501 41.5491 34.9807L39.309 31.3677L38.2371 32.4878V34.4989C38.2443 34.7684 38.1497 35.0307 37.9722 35.2335C37.877 35.3266 37.7638 35.3992 37.6395 35.4469C37.5153 35.4945 37.3825 35.5162 37.2496 35.5107C37.0274 35.5153 36.8104 35.4429 36.6354 35.3059C36.4652 35.1703 36.3498 34.9779 36.3102 34.764C36.2983 34.6761 36.2983 34.5868 36.3102 34.4989L36.3825 27.3693Z" fill="#FEE500"/>
</svg>
